<?xml version="1.0" standalone="no"?>
<!DOCTYPE svg PUBLIC "-//W3C//DTD SVG 20010904//EN"
 "http://www.w3.org/TR/2001/REC-SVG-20010904/DTD/svg10.dtd">
<svg version="1.0" xmlns="http://www.w3.org/2000/svg"
 width="700.000000pt" height="700.000000pt" viewBox="0 0 700.000000 700.000000"
 preserveAspectRatio="xMidYMid meet">
<metadata>
Created by potrace 1.14, written by Peter Selinger 2001-2017
</metadata>
<g transform="translate(0.000000,700.000000) scale(0.100000,-0.100000)"
fill="#000000" stroke="none">
<path d="M3399 6996 c-2 -2 -33 -6 -69 -10 -796 -78 -1533 -434 -2085 -1007
-55 -57 -120 -129 -145 -159 -25 -30 -48 -57 -51 -60 -26 -21 -213 -285 -281
-397 -126 -206 -193 -343 -308 -633 -43 -108 -127 -404 -145 -510 -3 -19 -12
-71 -20 -115 -8 -44 -17 -102 -20 -130 -4 -27 -8 -60 -10 -73 -17 -105 -24
-443 -12 -637 25 -447 161 -956 358 -1347 l30 -60 -23 -26 c-13 -13 -45 -46
-72 -71 -378 -352 -427 -408 -487 -550 -58 -139 -73 -336 -35 -473 121 -442
590 -670 991 -483 101 47 141 79 355 285 106 102 195 185 199 185 3 0 49 -32
101 -71 443 -332 983 -549 1570 -631 178 -25 674 -25 845 0 772 112 1417 429
1940 952 162 162 172 173 292 326 307 390 519 817 643 1300 56 219 52 374 -15
538 -109 265 -361 441 -651 455 -169 7 -384 -78 -508 -200 l-39 -39 -114 0
-114 0 6 70 c4 39 9 79 11 90 2 11 6 43 9 70 18 173 16 167 53 161 44 -7 180
-11 186 -5 3 3 8 189 12 415 3 225 6 428 7 451 2 50 -2 53 -86 53 l-61 0 215
213 c212 207 217 214 262 307 55 112 77 201 81 319 5 161 -44 323 -137 454
-109 153 -418 405 -717 584 -298 179 -712 338 -1039 399 -47 9 -95 18 -106 20
-11 3 -51 9 -90 14 -38 5 -88 12 -110 15 -44 7 -610 16 -616 11z m521 -1491
c181 -32 330 -71 427 -111 l38 -16 -25 -20 c-14 -11 -97 -88 -184 -172 -88
-83 -174 -164 -191 -181 -18 -16 -97 -91 -175 -165 -78 -74 -154 -146 -169
-159 -31 -29 -259 -244 -352 -333 -37 -35 -98 -92 -135 -127 -38 -36 -112
-105 -165 -155 -192 -182 -385 -364 -419 -396 -19 -18 -98 -92 -176 -166 -78
-74 -154 -146 -170 -161 -16 -14 -92 -86 -169 -159 -213 -201 -280 -263 -282
-260 -9 9 -50 196 -58 266 -3 25 -8 56 -11 70 -10 45 -12 373 -4 445 36 287
93 482 211 719 158 317 411 600 704 789 241 155 558 268 821 293 38 4 71 8 73
10 6 6 372 -4 411 -11z m871 -1735 c0 -3 2 -14 4 -24 2 -11 5 -36 7 -55 3 -33
1 -36 -38 -47 -59 -17 -117 -49 -222 -121 -182 -125 -190 -132 -217 -187 -28
-58 -29 -64 -41 -386 -5 -164 -9 -229 -13 -280 -1 -8 -18 -33 -37 -55 -71 -79
-153 -172 -269 -305 -65 -74 -142 -162 -171 -195 -29 -33 -66 -76 -83 -95
l-30 -35 55 -26 c30 -15 58 -29 62 -33 7 -7 -2 -4 -97 33 -60 24 -67 22 -103
-38 -12 -20 -26 -40 -31 -46 -4 -5 -65 -90 -133 -187 -69 -98 -130 -178 -135
-178 -27 0 -225 56 -309 87 -93 35 -286 128 -325 157 -19 15 -17 18 60 92 44
42 174 167 289 278 115 110 233 224 262 251 28 28 143 138 255 245 111 107
223 215 249 240 26 25 101 97 167 160 187 181 552 531 593 570 20 19 73 70
117 112 63 61 86 77 107 76 14 -1 26 -5 27 -8z m181 -1439 c13 -5 79 -12 148
-16 69 -3 126 -8 128 -9 7 -7 -128 -166 -218 -256 -148 -149 -316 -273 -481
-356 -74 -37 -77 -38 -98 -25 -12 8 14 47 124 193 76 101 148 195 159 210 26
33 33 42 126 167 41 55 78 100 82 101 4 0 17 -4 30 -9z"/>
</g>
</svg>
